<?xml version="1.0" encoding="iso-8859-1"?>
<!-- Generator: Adobe Illustrator 19.0.0, SVG Export Plug-In . SVG Version: 6.00 Build 0)  -->
<svg version="1.1" id="Capa_1" xmlns="http://www.w3.org/2000/svg" xmlns:xlink="http://www.w3.org/1999/xlink" x="0px" y="0px"
	 viewBox="0 0 388.8 388.8" style="enable-background:new 0 0 388.8 388.8; fill: #4191cf;" xml:space="preserve">
<g>
	<g>
		<path d="M380.8,317.6h-308V8c0-4.8-3.2-8-8-8c-4.8,0-8,3.2-8,8v309.6H8c-4.8,0-8,3.2-8,8s3.2,8,8,8h48.8v47.2c0,4.8,3.2,8,8,8
			c4.8,0,8-3.2,8-8v-47.2h308c4.8,0,8-3.2,8-8S384.8,317.6,380.8,317.6z"/>
	</g>
</g>
<g>
	<g>
		<path d="M328,179.2l43.2-45.6c3.2-3.2,3.2-8,0-11.2s-8-3.2-11.2,0l-42.4,44.8L219.2,61.6c-1.6-1.6-4-2.4-5.6-2.4
			c-2.4,0-4,0.8-5.6,2.4L100.8,176c-3.2,3.2-3.2,8,0.8,11.2c3.2,3.2,8,3.2,11.2-0.8l100-108l92.8,100.8l-41.6,44l-49.6-62.4
			c-1.6-1.6-3.2-3.2-5.6-3.2c-2.4,0-4.8,0.8-6.4,2.4l-100.8,99.2c-3.2,3.2-3.2,8,0,11.2c1.6,1.6,4,2.4,5.6,2.4c2.4,0,4-0.8,5.6-2.4
			l95.2-93.6l49.6,63.2c1.6,1.6,4,3.2,5.6,3.2c2.4,0,4.8-0.8,6.4-2.4l47.2-49.6l42.4,46.4c1.6,1.6,4,2.4,5.6,2.4
			c1.6,0,4-0.8,5.6-2.4c3.2-3.2,3.2-8,0.8-11.2L328,179.2z"/>
	</g>
</g>
<g>
</g>
<g>
</g>
<g>
</g>
<g>
</g>
<g>
</g>
<g>
</g>
<g>
</g>
<g>
</g>
<g>
</g>
<g>
</g>
<g>
</g>
<g>
</g>
<g>
</g>
<g>
</g>
<g>
</g>
</svg>
