<?xml version="1.0" encoding="utf-8"?>
<!-- Generator: Adobe Illustrator 19.0.0, SVG Export Plug-In . SVG Version: 6.00 Build 0)  -->
<svg version="1.1" id="Layer_1" xmlns="http://www.w3.org/2000/svg" xmlns:xlink="http://www.w3.org/1999/xlink" x="0px" y="0px"
	 viewBox="0 0 292.9 72" style="enable-background:new 0 0 292.9 72;" xml:space="preserve">
<style type="text/css">
	.st0{fill:url(#SVGID_1_);}
	.st1{fill:url(#SVGID_2_);}
	.st2{fill:url(#SVGID_3_);}
	.st3{fill:url(#SVGID_4_);}
	.st4{fill:url(#SVGID_5_);}
	.st5{fill:url(#SVGID_6_);}
	.st6{fill:url(#SVGID_7_);}
	.st7{fill:url(#SVGID_8_);}
	.st8{fill:url(#SVGID_9_);}
	.st9{fill:url(#SVGID_10_);}
	.st10{fill:url(#SVGID_11_);}
	.st11{fill:url(#SVGID_12_);}
</style>
<g>
	<g>
		<g>
			<linearGradient id="SVGID_1_" gradientUnits="userSpaceOnUse" x1="56.1932" y1="1.9428" x2="56.1932" y2="62.2831">
				<stop  offset="0" style="stop-color:#3C91CF"/>
				<stop  offset="1" style="stop-color:#69CBDB"/>
			</linearGradient>
			<polygon class="st0" points="50.7,56.3 50.7,61.5 61.7,55.6 61.7,50.2 			"/>
			<linearGradient id="SVGID_2_" gradientUnits="userSpaceOnUse" x1="56.2191" y1="1.9428" x2="56.2191" y2="62.2831">
				<stop  offset="0" style="stop-color:#3C91CF"/>
				<stop  offset="1" style="stop-color:#69CBDB"/>
			</linearGradient>
			<polygon class="st1" points="50.7,46.1 50.7,51.2 61.7,45.1 61.7,40 			"/>
			<linearGradient id="SVGID_3_" gradientUnits="userSpaceOnUse" x1="56.2451" y1="1.9428" x2="56.2451" y2="62.2831">
				<stop  offset="0" style="stop-color:#3C91CF"/>
				<stop  offset="1" style="stop-color:#69CBDB"/>
			</linearGradient>
			<polygon class="st2" points="50.8,35.8 50.8,41 61.7,34.9 61.7,29.7 			"/>
		</g>
		<linearGradient id="SVGID_4_" gradientUnits="userSpaceOnUse" x1="30.9166" y1="1.9428" x2="30.9166" y2="62.2831">
			<stop  offset="0" style="stop-color:#3C91CF"/>
			<stop  offset="1" style="stop-color:#69CBDB"/>
		</linearGradient>
		<polygon class="st3" points="31.3,54.4 20.8,48.7 20.8,53.6 10.6,47.9 10.6,24 20.9,18 31,24 20.6,29.9 31,36.3 61.8,18.3 
			51.6,12.1 41.6,17.9 31.4,11.9 41.2,6.3 31,0 0,17.8 0,53.8 31.3,72 		"/>
	</g>
	<g>
		<linearGradient id="SVGID_5_" gradientUnits="userSpaceOnUse" x1="101.005" y1="11.9158" x2="101.005" y2="105.5158">
			<stop  offset="0" style="stop-color:#3C91CF"/>
			<stop  offset="1" style="stop-color:#69CBDB"/>
		</linearGradient>
		<path class="st4" d="M114.8,37.9V58h-8.1V38.5c0-3.6-2-4.8-4-4.8c-2,0-4.2,1-7.3,3V58h-8.1V13.6h8.1v15.2c4.3-2.6,6.1-2.8,8.3-2.8
			C110.1,26.1,114.8,31,114.8,37.9z"/>
		<linearGradient id="SVGID_6_" gradientUnits="userSpaceOnUse" x1="132.3292" y1="11.9158" x2="132.3292" y2="105.5158">
			<stop  offset="0" style="stop-color:#3C91CF"/>
			<stop  offset="1" style="stop-color:#69CBDB"/>
		</linearGradient>
		<path class="st5" d="M132.3,58.3c-6.3,0-13.8-3.6-13.8-11.4v-9.3c0-7.8,7.6-11.5,13.8-11.5c6.3,0,13.8,3.8,13.8,11.5v9.3
			C146.1,54.7,138.7,58.3,132.3,58.3z M138.1,39c0-3.9-3-5.5-5.7-5.5c-2.7,0-5.7,1.5-5.7,5.5v6.4c0,4,3,5.5,5.7,5.5
			c2.7,0,5.7-1.5,5.7-5.5V39z"/>
		<linearGradient id="SVGID_7_" gradientUnits="userSpaceOnUse" x1="161.8713" y1="11.9158" x2="161.8713" y2="105.5158">
			<stop  offset="0" style="stop-color:#3C91CF"/>
			<stop  offset="1" style="stop-color:#69CBDB"/>
		</linearGradient>
		<path class="st6" d="M162.3,58.3c-4.7,0-9.2-0.6-13.9-4.6l4.3-5.8c3.4,3.1,6.6,3.4,10.1,3.4c2.1,0,4.4-1.1,4.4-3
			c0-1.5-1.3-2.6-3.9-3c-5.7-0.8-13.1-1.3-13.1-9.2c0-6.6,5.5-10,12-10c5,0,8.8,0.7,12.7,3.7l-3.8,5.9c-3.2-2.2-6-2.5-8.9-2.5
			c-3.3,0-4.1,1.5-4.1,3c0,1.8,4.3,2.3,6,2.5c6.2,0.8,11.3,2.3,11.3,9.5C175.4,54.8,169.4,58.3,162.3,58.3z"/>
		<linearGradient id="SVGID_8_" gradientUnits="userSpaceOnUse" x1="186.3201" y1="11.9158" x2="186.3201" y2="105.5158">
			<stop  offset="0" style="stop-color:#3C91CF"/>
			<stop  offset="1" style="stop-color:#69CBDB"/>
		</linearGradient>
		<path class="st7" d="M191.8,58c-6.4,0-11-3.2-11-10.9V33.4h-3.9v-7h3.9v-9.2h8v9.2h6.9v7h-6.9v12.7c0,3.3,1.6,4.6,4.2,4.6h2.7V58
			H191.8z"/>
		<linearGradient id="SVGID_9_" gradientUnits="userSpaceOnUse" x1="206.8528" y1="11.9158" x2="206.8528" y2="105.5158">
			<stop  offset="0" style="stop-color:#3C91CF"/>
			<stop  offset="1" style="stop-color:#69CBDB"/>
		</linearGradient>
		<path class="st8" d="M211.8,58.1c-5.7-0.4-11.3-3.4-11.3-10.3V13.6h8v32.7c0,2.7,1.3,4.4,4.5,4.5c0.1,0,0.1,0,0.2,0v7.4
			C212.8,58.2,212.2,58.1,211.8,58.1z"/>
		<linearGradient id="SVGID_10_" gradientUnits="userSpaceOnUse" x1="221.4966" y1="11.9158" x2="221.4966" y2="105.5158">
			<stop  offset="0" style="stop-color:#3C91CF"/>
			<stop  offset="1" style="stop-color:#69CBDB"/>
		</linearGradient>
		<path class="st9" d="M221.5,22.7c-2.5,0-4.5-2-4.5-4.5c0-2.5,2-4.5,4.5-4.5s4.5,2,4.5,4.5C226,20.6,224,22.7,221.5,22.7z
			 M217.5,58V26.4h8.1V58H217.5z"/>
		<linearGradient id="SVGID_11_" gradientUnits="userSpaceOnUse" x1="245.4034" y1="11.9158" x2="245.4034" y2="105.5158">
			<stop  offset="0" style="stop-color:#3C91CF"/>
			<stop  offset="1" style="stop-color:#69CBDB"/>
		</linearGradient>
		<path class="st10" d="M259.2,37.9V58H251V38.5c0-3.6-2-4.8-4-4.8c-2,0-4.2,1-7.3,3V58h-8.1V26.4h8.1v2.5c4.3-2.6,6.1-2.8,8.3-2.8
			C254.5,26.1,259.2,31,259.2,37.9z"/>
		<linearGradient id="SVGID_12_" gradientUnits="userSpaceOnUse" x1="278.3513" y1="11.9158" x2="278.3513" y2="105.5158">
			<stop  offset="0" style="stop-color:#3C91CF"/>
			<stop  offset="1" style="stop-color:#69CBDB"/>
		</linearGradient>
		<path class="st11" d="M283.4,58l-8.3-12.7l-3.1,3.6v9h-8.1V13.6h8.1v23.7l9.7-11c1,0-1,0,10.3,0l-11.5,12.9L292.9,58H283.4z"/>
	</g>
</g>
</svg>
