<?xml version="1.0" encoding="iso-8859-1"?>
<!-- Generator: Adobe Illustrator 19.0.0, SVG Export Plug-In . SVG Version: 6.00 Build 0)  -->
<svg version="1.1" id="Capa_1" xmlns="http://www.w3.org/2000/svg" xmlns:xlink="http://www.w3.org/1999/xlink" x="0px" y="0px"
	 viewBox="0 0 512.015 512.015" style="enable-background:new 0 0 512.015 512.015; fill: #4191cf;" xml:space="preserve">
<g>
	<g>
		<g>
			<rect x="42.677" y="405.329" width="42.667" height="21.333"/>
			<rect x="42.677" y="447.995" width="85.333" height="21.333"/>
			<path d="M431.701,331.835c-4.567-4.566-9.957-7.803-15.691-9.728v-96.292l86.795-86.79c12.281-12.284,12.281-32.196,0-44.48
				c-12.449-11.886-32.042-11.886-44.491,0l-42.304,42.302V53.382h21.333c5.891,0,10.667-4.776,10.667-10.667
				c0-23.564-19.102-42.667-42.667-42.667H43.263c-0.96-0.064-1.909,0-2.859,0C17.267,1.757-0.484,21.28,0.01,44.475v435.52
				c0,17.673,14.327,32,32,32h352c17.673,0,32-14.327,32-32v-49.478l35.691,35.686c2,2.001,4.713,3.125,7.541,3.125
				c2.829-0.001,5.541-1.125,7.541-3.125l42.101-42.101c4.164-4.165,4.164-10.917,0-15.083L431.701,331.835z M423.146,353.435
				l-27.023,27.023l-6.523-6.522c-3.596-3.588-5.613-8.462-5.606-13.542c0.015-10.545,8.576-19.081,19.121-19.066
				c5.063-0.007,9.922,2,13.504,5.579L423.146,353.435z M277.67,311.198l8.472,8.469l-16.948,8.477L277.67,311.198z M289.823,293.19
				l161.335-161.325l14.316,14.314L304.149,307.505L289.823,293.19z M487.711,109.627c3.953,3.953,3.953,10.362,0,14.315
				l-7.152,7.152l-14.316-14.314l7.153-7.153C477.401,105.799,483.708,105.799,487.711,109.627z M405.343,21.328
				c7.618,0.004,14.655,4.07,18.464,10.667H83.978c-0.971-3.736-2.442-7.324-4.373-10.667H405.343z M394.677,479.995
				c0,5.891-4.776,10.667-10.667,10.667h-352c-5.891,0-10.667-4.776-10.667-10.667V44.475c-0.357-11.801,8.432-21.887,20.171-23.147
				c0.384,0,0.576,0,1.163,0h0.331c11.653,0.181,21.004,9.679,21.003,21.333c0,0.018,0,0.036,0,0.053
				c0,5.891,4.776,10.667,10.667,10.667h320v104.796l-127.477,127.47c-0.834,0.834-1.493,1.775-1.992,2.774l-0.002-0.001
				l-26.458,52.907H85.343v-224h64v117.333c0,5.891,4.776,10.667,10.667,10.667h53.333c5.891,0,10.667-4.776,10.667-10.667v-53.333
				h53.333v32c0,5.891,4.776,10.667,10.667,10.667h21.333v-21.333h-10.667v-32c0-5.891-4.776-10.667-10.667-10.667h-74.667
				c-5.891,0-10.667,4.776-10.667,10.667v53.333h-32V106.662c0-5.891-4.776-10.667-10.667-10.667H74.677
				c-5.891,0-10.667,4.776-10.667,10.667v245.333c0,5.891,4.776,10.667,10.667,10.667h170.667c1.65,0.018,3.283-0.347,4.768-1.067
				l58.805-29.461l-0.007-0.014c1.018-0.508,1.961-1.172,2.78-1.991l82.987-82.982v73.742c-7.389,1.568-14.426,5.212-20.165,10.952
				c-15.791,15.794-15.789,41.398,0.005,57.189l20.16,20.157V479.995z M459.242,443.569l-48.033-48.026l27.022-27.022l48.029,48.029
				L459.242,443.569z"/>
		</g>
	</g>
</g>
<g>
</g>
<g>
</g>
<g>
</g>
<g>
</g>
<g>
</g>
<g>
</g>
<g>
</g>
<g>
</g>
<g>
</g>
<g>
</g>
<g>
</g>
<g>
</g>
<g>
</g>
<g>
</g>
<g>
</g>
</svg>
